<mxfile host="Electron" agent="Mozilla/5.0 (Macintosh; Intel Mac OS X 10_15_7) AppleWebKit/537.36 (KHTML, like Gecko) draw.io/27.0.5 Chrome/134.0.6998.205 Electron/35.3.0 Safari/537.36" version="27.0.5">
  <diagram name="Page-1" id="1x_L8tCsecBxA9oG1HDn">
    <mxGraphModel dx="1845" dy="748" grid="1" gridSize="10" guides="1" tooltips="1" connect="1" arrows="1" fold="1" page="1" pageScale="1" pageWidth="827" pageHeight="1169" math="0" shadow="0">
      <root>
        <mxCell id="0" />
        <mxCell id="1" parent="0" />
        <mxCell id="KjEo7gl8Mg75x5mY_Du0-9" value="" style="rounded=1;whiteSpace=wrap;html=1;arcSize=6;shadow=1;strokeColor=#C4C4C4;" parent="1" vertex="1">
          <mxGeometry x="-100" y="176" width="940" height="294" as="geometry" />
        </mxCell>
        <mxCell id="KjEo7gl8Mg75x5mY_Du0-1" value="&lt;div&gt;&lt;div&gt;&lt;span style=&quot;font-family: &amp;quot;architects daughter&amp;quot;; background-color: transparent; color: light-dark(rgb(0, 0, 0), rgb(255, 255, 255));&quot;&gt;markdown or asciidoc stored in Git&lt;/span&gt;&lt;/div&gt;&lt;/div&gt;" style="rounded=1;whiteSpace=wrap;html=1;fillColor=#fff2cc;strokeColor=#d6b656;sketch=1;curveFitting=1;jiggle=2;fontSize=18;verticalAlign=bottom;spacingBottom=3;" parent="1" vertex="1">
          <mxGeometry x="8" y="200" width="204" height="100" as="geometry" />
        </mxCell>
        <mxCell id="KjEo7gl8Mg75x5mY_Du0-2" value="&lt;div&gt;&lt;span style=&quot;font-family: &amp;quot;architects daughter&amp;quot;; background-color: transparent; color: light-dark(rgb(0, 0, 0), rgb(255, 255, 255));&quot;&gt;Documentation built and publish as HTML&lt;/span&gt;&lt;/div&gt;" style="rounded=1;whiteSpace=wrap;html=1;fillColor=#fff2cc;strokeColor=#d6b656;sketch=1;curveFitting=1;jiggle=2;fontSize=18;verticalAlign=bottom;spacingBottom=3;" parent="1" vertex="1">
          <mxGeometry x="261" y="200" width="204" height="100" as="geometry" />
        </mxCell>
        <mxCell id="KjEo7gl8Mg75x5mY_Du0-3" value="&lt;div&gt;&lt;span style=&quot;font-family: &amp;quot;architects daughter&amp;quot;; background-color: transparent; color: light-dark(rgb(0, 0, 0), rgb(255, 255, 255));&quot;&gt;Documentation built and publish as HTML&lt;/span&gt;&lt;/div&gt;" style="rounded=1;whiteSpace=wrap;html=1;fillColor=#fff2cc;strokeColor=#d6b656;sketch=1;curveFitting=1;jiggle=2;fontSize=18;verticalAlign=bottom;spacingBottom=3;" parent="1" vertex="1">
          <mxGeometry x="514" y="200" width="204" height="100" as="geometry" />
        </mxCell>
        <mxCell id="KjEo7gl8Mg75x5mY_Du0-4" value="" style="shape=flexArrow;endArrow=classic;html=1;rounded=0;sketch=1;curveFitting=1;jiggle=2;fillColor=#d5e8d4;strokeColor=#82b366;" parent="1" edge="1">
          <mxGeometry width="50" height="50" relative="1" as="geometry">
            <mxPoint x="205" y="237.74" as="sourcePoint" />
            <mxPoint x="265" y="237.74" as="targetPoint" />
          </mxGeometry>
        </mxCell>
        <mxCell id="KjEo7gl8Mg75x5mY_Du0-5" value="" style="shape=flexArrow;endArrow=classic;html=1;rounded=0;sketch=1;curveFitting=1;jiggle=2;fillColor=#d5e8d4;strokeColor=#82b366;" parent="1" edge="1">
          <mxGeometry width="50" height="50" relative="1" as="geometry">
            <mxPoint x="459" y="237.74" as="sourcePoint" />
            <mxPoint x="519" y="237.74" as="targetPoint" />
          </mxGeometry>
        </mxCell>
        <mxCell id="KjEo7gl8Mg75x5mY_Du0-6" value="&lt;div&gt;&lt;span style=&quot;font-family: &amp;quot;architects daughter&amp;quot;; background-color: transparent; color: light-dark(rgb(0, 0, 0), rgb(255, 255, 255));&quot;&gt;Changes are checked by code review&lt;/span&gt;&lt;/div&gt;" style="rounded=1;whiteSpace=wrap;html=1;fillColor=#fff2cc;strokeColor=#d6b656;sketch=1;curveFitting=1;jiggle=2;fontSize=18;verticalAlign=bottom;spacingBottom=3;" parent="1" vertex="1">
          <mxGeometry x="261" y="347" width="204" height="100" as="geometry" />
        </mxCell>
        <mxCell id="KjEo7gl8Mg75x5mY_Du0-8" value="" style="shape=flexArrow;endArrow=classic;startArrow=classic;html=1;rounded=0;sketch=1;jiggle=2;curveFitting=1;strokeColor=#82b366;align=center;verticalAlign=middle;fontFamily=Helvetica;fontSize=11;fontColor=default;labelBackgroundColor=default;fillColor=#d5e8d4;" parent="1" edge="1">
          <mxGeometry width="100" height="100" relative="1" as="geometry">
            <mxPoint x="356" y="353" as="sourcePoint" />
            <mxPoint x="356" y="293" as="targetPoint" />
          </mxGeometry>
        </mxCell>
        <mxCell id="nhlDHnIz6VgIqYEezqu_-1" value="&lt;font face=&quot;architects daughter&quot; style=&quot;forced-color-adjust: none; color: rgb(0, 0, 0); font-style: normal; font-variant-ligatures: normal; font-variant-caps: normal; font-weight: 400; letter-spacing: normal; orphans: 2; text-indent: 0px; text-transform: none; widows: 2; word-spacing: 0px; -webkit-text-stroke-width: 0px; white-space: normal; text-decoration-thickness: initial; text-decoration-style: initial; text-decoration-color: initial;&quot;&gt;Source Control&lt;/font&gt;" style="text;whiteSpace=wrap;html=1;align=center;fontSize=27;spacing=0;fillColor=none;strokeColor=none;verticalAlign=top;" vertex="1" parent="1">
          <mxGeometry x="12" y="200" width="200" height="40" as="geometry" />
        </mxCell>
        <mxCell id="nhlDHnIz6VgIqYEezqu_-2" value="&lt;font face=&quot;architects daughter&quot; style=&quot;forced-color-adjust: none; color: rgb(0, 0, 0); font-style: normal; font-variant-ligatures: normal; font-variant-caps: normal; font-weight: 400; letter-spacing: normal; orphans: 2; text-indent: 0px; text-transform: none; widows: 2; word-spacing: 0px; -webkit-text-stroke-width: 0px; white-space: normal; text-decoration-thickness: initial; text-decoration-style: initial; text-decoration-color: initial;&quot;&gt;CI / CD&lt;/font&gt;&lt;br class=&quot;Apple-interchange-newline&quot;&gt;" style="text;whiteSpace=wrap;html=1;align=center;fontSize=27;spacing=0;fillColor=none;strokeColor=none;labelBackgroundColor=none;verticalAlign=top;" vertex="1" parent="1">
          <mxGeometry x="288" y="200" width="130" height="40" as="geometry" />
        </mxCell>
        <mxCell id="nhlDHnIz6VgIqYEezqu_-3" value="&lt;font face=&quot;architects daughter&quot; style=&quot;forced-color-adjust: none; color: rgb(0, 0, 0); font-style: normal; font-variant-ligatures: normal; font-variant-caps: normal; font-weight: 400; letter-spacing: normal; orphans: 2; text-indent: 0px; text-transform: none; widows: 2; word-spacing: 0px; -webkit-text-stroke-width: 0px; white-space: normal; text-decoration-thickness: initial; text-decoration-style: initial; text-decoration-color: initial;&quot;&gt;Hosted Docs&lt;/font&gt;&lt;br class=&quot;Apple-interchange-newline&quot;&gt;" style="text;whiteSpace=wrap;html=1;align=center;fontSize=27;spacing=0;fillColor=none;strokeColor=none;labelBackgroundColor=none;verticalAlign=top;" vertex="1" parent="1">
          <mxGeometry x="536" y="200" width="160" height="40" as="geometry" />
        </mxCell>
        <mxCell id="nhlDHnIz6VgIqYEezqu_-4" value="&lt;div style=&quot;forced-color-adjust: none; color: rgb(0, 0, 0); font-family: Helvetica; font-style: normal; font-variant-ligatures: normal; font-variant-caps: normal; font-weight: 400; letter-spacing: normal; orphans: 2; text-indent: 0px; text-transform: none; widows: 2; word-spacing: 0px; -webkit-text-stroke-width: 0px; white-space: normal; text-decoration-thickness: initial; text-decoration-style: initial; text-decoration-color: initial;&quot;&gt;&lt;font face=&quot;architects daughter&quot; style=&quot;forced-color-adjust: none;&quot;&gt;Code Review&lt;/font&gt;&lt;/div&gt;&lt;br class=&quot;Apple-interchange-newline&quot;&gt;" style="text;whiteSpace=wrap;html=1;align=center;fontSize=27;spacing=0;fillColor=none;strokeColor=none;labelBackgroundColor=none;" vertex="1" parent="1">
          <mxGeometry x="272" y="347" width="180" height="40" as="geometry" />
        </mxCell>
      </root>
    </mxGraphModel>
  </diagram>
</mxfile>
